<svg data-v-86583afd="" xmlns="http://www.w3.org/2000/svg" width="198.28333473205566" height="35" viewBox="0 0 198.28333473205566 35" class="badge-svg"><defs data-v-86583afd=""><!----><!----><!----></defs><path data-v-86583afd="" d="M 10 0 L 119.11666870117188 0 L 119.11666870117188 35 L 10 35 Q 0 35 0 25 L 0 10 Q 0 0 10 0 Z" fill="#ff0000"/><path data-v-86583afd="" d="M 119.11666870117188 0 L 188.28333473205566 0 Q 198.28333473205566 0 198.28333473205566 10 L 198.28333473205566 25 Q 198.28333473205566 35 188.28333473205566 35 L 119.11666870117188 35 Z" fill="#c40000"/><!----><text data-v-86583afd="" x="59.55833435058594" y="17.5" dy="0.35em" font-size="12" font-family="Georgia, sans-serif" fill="#FFFFFF" text-anchor="middle" letter-spacing="2" font-weight="600" font-style="normal" text-decoration="none" fill-opacity="1" font-variant="normal" style="text-transform: uppercase;">MADE WITH</text><g data-v-86583afd="" transform="translate(129.11666870117188, 7.5) scale(0.8333333333333334)"><path data-v-86583afd="" d="M22.394 6c-.167-.29-.398-.543-.652-.69L12.926.22c-.509-.294-1.34-.294-1.848 0L2.26 5.31c-.508.293-.923 1.013-.923 1.6v10.18c0 .294.104.62.271.91.167.29.398.543.652.69l8.816 5.09c.508.293 1.34.293 1.848 0l8.816-5.09c.254-.147.485-.4.652-.69.167-.29.27-.616.27-.91V6.91c.003-.294-.1-.62-.268-.91zM12 19.11c-3.92 0-7.109-3.19-7.109-7.11 0-3.92 3.19-7.11 7.11-7.11a7.133 7.133 0 016.156 3.553l-3.076 1.78a3.567 3.567 0 00-3.08-1.78A3.56 3.56 0 008.444 12 3.56 3.56 0 0012 15.555a3.57 3.57 0 003.08-1.778l3.078 1.78A7.135 7.135 0 0112 19.11zm7.11-6.715h-.79v.79h-.79v-.79h-.79v-.79h.79v-.79h.79v.79h.79zm2.962 0h-.79v.79h-.79v-.79h-.79v-.79h.79v-.79h.79v.79h.79z" fill="#FFFFFF"/></g><text data-v-86583afd="" x="170.70000171661377" y="17.5" dy="0.35em" font-size="12" font-family="Montserrat, sans-serif" fill="#FFFFFF" text-anchor="middle" font-weight="900" letter-spacing="2" font-style="normal" text-decoration="none" fill-opacity="1" font-variant="normal" style="text-transform: uppercase;">C++</text><!----></svg>