<svg data-v-86583afd="" xmlns="http://www.w3.org/2000/svg" width="518.8666534423828" height="35" viewBox="0 0 518.8666534423828 35" class="badge-svg"><defs data-v-86583afd=""><!----><!----><!----></defs><path data-v-86583afd="" d="M 10 0 L 324.4166564941406 0 L 324.4166564941406 35 L 10 35 Q 0 35 0 25 L 0 10 Q 0 0 10 0 Z" fill="#ff0000"/><path data-v-86583afd="" d="M 324.4166564941406 0 L 508.8666534423828 0 Q 518.8666534423828 0 518.8666534423828 10 L 518.8666534423828 25 Q 518.8666534423828 35 508.8666534423828 35 L 324.4166564941406 35 Z" fill="#c40000"/><!----><text data-v-86583afd="" x="162.2083282470703" y="17.5" dy="0.35em" font-size="12" font-family="Georgia, sans-serif" fill="#FFFFFF" text-anchor="middle" letter-spacing="2" font-weight="600" font-style="normal" text-decoration="none" fill-opacity="1" font-variant="normal" style="text-transform: uppercase;">DESIGNED &amp; DEVELOPED WITH ❤︎ BY</text><g data-v-86583afd="" transform="translate(334.4166564941406, 7.5) scale(0.8333333333333334)"><path data-v-86583afd="" d="m19.546 7.5726-1.531-1.5703c-.4881.4371-.965.8647-1.442 1.2922l-.959.8596c1.3076 1.3446 2.5887 2.6624 3.8756 3.987l-2.4261 2.4956-1.4508 1.4924c.55.4988 1.0916.9897 1.6397 1.4864l.765.6933 2.209-2.2773c1.2588-1.2976 2.5141-2.5916 3.7736-3.8905v-.001a20797.5906 20797.5906 0 0 1-4.454-4.5674ZM2.992 9.0716A16808.14 16808.14 0 0 1 0 12.141c2.0108 2.0727 3.9927 4.1152 5.9838 6.1666l.5111-.4635c.638-.5786 1.2616-1.144 1.8924-1.715l-1.447-1.4888c-.8134-.8368-1.6208-1.6676-2.431-2.5015 1.0462-1.075 2.0745-2.132 3.1094-3.1959l.7674-.7888c-.4342-.3892-.861-.7718-1.2883-1.1546l-1.114-.9983v.0011c-.9996 1.0251-1.9958 2.0472-2.992 3.0694Zm12.585-6.0372c-1.317 6.199-2.6283 12.3689-3.9453 18.5656l-.1962-.0387a2911.4317 2911.4317 0 0 0-3.0284-.5957c.8529-4.0118 1.7034-8.0133 2.5549-12.0196L12.3533 2.4z" fill="#FFFFFF"/></g><text data-v-86583afd="" x="433.6416549682617" y="17.5" dy="0.35em" font-size="12" font-family="Montserrat, sans-serif" fill="#FFFFFF" text-anchor="middle" font-weight="900" letter-spacing="2" font-style="normal" text-decoration="none" fill-opacity="1" font-variant="normal" style="text-transform: uppercase;">KRITIK AGARWAL</text><!----></svg>